{
    "asset" : {
        "copyright" : "CONCEPT3D",
        "generator" : "Khronos glTF Blender I/O v3.3.36",
        "version" : "2.0"
    },
    "scene" : 0,
    "scenes" : [
        {
            "name" : "Scene",
            "nodes" : [
                0
            ]
        }
    ],
    "nodes" : [
        {
            "mesh" : 0,
            "name" : "8f15dff6-bc47-4a01-a8f1-bba5ed0f8045",
            "rotation" : [
                0,
                -0.7071067094802856,
                0.7071068286895752,
                3.0908616110991716e-08
            ]
        }
    ],
    "materials" : [
        {
            "doubleSided" : true,
            "name" : "8f15dff6-bc47-4a01-a8f1-bba5ed0f8045",
            "pbrMetallicRoughness" : {
                "baseColorTexture" : {
                    "index" : 0
                },
                "metallicFactor" : 0,
                "roughnessFactor" : 0.5
            }
        }
    ],
    "meshes" : [
        {
            "name" : "Svyato-Mykolaivsky-Khram_sm_h+sm_l_l.002",
            "primitives" : [
                {
                    "attributes" : {
                        "POSITION" : 0,
                        "TEXCOORD_0" : 1
                    },
                    "indices" : 2,
                    "material" : 0
                }
            ]
        }
    ],
    "textures" : [
        {
            "sampler" : 0,
            "source" : 0
        }
    ],
    "images" : [
        {
            "mimeType" : "image/jpeg",
            "name" : "8f15dff6-bc47-4a01-a8f1-bba5ed0f8045",
            "uri" : "8f15dff6-bc47-4a01-a8f1-bba5ed0f8045_combined.jpg"
        }
    ],
    "accessors" : [
        {
            "bufferView" : 0,
            "componentType" : 5126,
            "count" : 13939,
            "max" : [
                20.132244110107422,
                7.903565406799316,
                -1.061914190358948e-06
            ],
            "min" : [
                -20.132244110107422,
                -7.9035749435424805,
                -25.3335018157959
            ],
            "type" : "VEC3"
        },
        {
            "bufferView" : 1,
            "componentType" : 5126,
            "count" : 13939,
            "type" : "VEC2"
        },
        {
            "bufferView" : 2,
            "componentType" : 5123,
            "count" : 50016,
            "type" : "SCALAR"
        }
    ],
    "bufferViews" : [
        {
            "buffer" : 0,
            "byteLength" : 167268,
            "byteOffset" : 0,
            "target" : 34962
        },
        {
            "buffer" : 0,
            "byteLength" : 111512,
            "byteOffset" : 167268,
            "target" : 34962
        },
        {
            "buffer" : 0,
            "byteLength" : 100032,
            "byteOffset" : 278780,
            "target" : 34963
        }
    ],
    "samplers" : [
        {
            "magFilter" : 9729,
            "minFilter" : 9987
        }
    ],
    "buffers" : [
        {
            "byteLength" : 378812,
            "uri" : "Svyato-Mykolaivsky-Khram_sm_h+sm_l.bin"
        }
    ]
}
