{
    "asset" : {
        "copyright" : "CONCEPT3D",
        "generator" : "Khronos glTF Blender I/O v3.3.36",
        "version" : "2.0"
    },
    "scene" : 0,
    "scenes" : [
        {
            "name" : "Scene",
            "nodes" : [
                0
            ]
        }
    ],
    "nodes" : [
        {
            "mesh" : 0,
            "name" : "d645d461-f3f6-4045-895d-5a01a2db0c29",
            "rotation" : [
                0,
                -0.7071067094802856,
                0.7071068286895752,
                3.0908616110991716e-08
            ]
        }
    ],
    "materials" : [
        {
            "doubleSided" : true,
            "name" : "d645d461-f3f6-4045-895d-5a01a2db0c29",
            "pbrMetallicRoughness" : {
                "baseColorTexture" : {
                    "index" : 0
                },
                "metallicFactor" : 0,
                "roughnessFactor" : 0.5
            }
        },
        {
            "doubleSided" : true,
            "name" : "f163d776-f1c1-46f7-b23b-0941e43a30ab",
            "pbrMetallicRoughness" : {
                "baseColorTexture" : {
                    "index" : 1
                },
                "metallicFactor" : 0,
                "roughnessFactor" : 0.5
            }
        },
        {
            "doubleSided" : true,
            "name" : "48f9a780-fca5-427a-80d9-58dea1eb9524",
            "pbrMetallicRoughness" : {
                "baseColorTexture" : {
                    "index" : 2
                },
                "metallicFactor" : 0,
                "roughnessFactor" : 0.5
            }
        }
    ],
    "meshes" : [
        {
            "name" : "DniprovskaOblasnaRada_h+l_l.002",
            "primitives" : [
                {
                    "attributes" : {
                        "POSITION" : 0,
                        "TEXCOORD_0" : 1
                    },
                    "indices" : 2,
                    "material" : 0
                },
                {
                    "attributes" : {
                        "POSITION" : 3,
                        "TEXCOORD_0" : 4
                    },
                    "indices" : 5,
                    "material" : 1
                },
                {
                    "attributes" : {
                        "POSITION" : 6,
                        "TEXCOORD_0" : 7
                    },
                    "indices" : 8,
                    "material" : 2
                }
            ]
        }
    ],
    "textures" : [
        {
            "sampler" : 0,
            "source" : 0
        },
        {
            "sampler" : 0,
            "source" : 1
        },
        {
            "sampler" : 0,
            "source" : 2
        }
    ],
    "images" : [
        {
            "mimeType" : "image/jpeg",
            "name" : "d645d461-f3f6-4045-895d-5a01a2db0c29",
            "uri" : "d645d461-f3f6-4045-895d-5a01a2db0c29_combined.jpg"
        },
        {
            "mimeType" : "image/jpeg",
            "name" : "f163d776-f1c1-46f7-b23b-0941e43a30ab",
            "uri" : "f163d776-f1c1-46f7-b23b-0941e43a30ab_combined.jpg"
        },
        {
            "mimeType" : "image/jpeg",
            "name" : "48f9a780-fca5-427a-80d9-58dea1eb9524",
            "uri" : "48f9a780-fca5-427a-80d9-58dea1eb9524_combined.jpg"
        }
    ],
    "accessors" : [
        {
            "bufferView" : 0,
            "componentType" : 5126,
            "count" : 10165,
            "max" : [
                25.49075698852539,
                14.12099838256836,
                -1.8972812085849e-06
            ],
            "min" : [
                -25.490755081176758,
                -14.121001243591309,
                -10.020702362060547
            ],
            "type" : "VEC3"
        },
        {
            "bufferView" : 1,
            "componentType" : 5126,
            "count" : 10165,
            "type" : "VEC2"
        },
        {
            "bufferView" : 2,
            "componentType" : 5123,
            "count" : 20388,
            "type" : "SCALAR"
        },
        {
            "bufferView" : 3,
            "componentType" : 5126,
            "count" : 10545,
            "max" : [
                25.49075698852539,
                14.120997428894043,
                -1.8972812085849e-06
            ],
            "min" : [
                -24.9222469329834,
                -14.120999336242676,
                -10.01970100402832
            ],
            "type" : "VEC3"
        },
        {
            "bufferView" : 4,
            "componentType" : 5126,
            "count" : 10545,
            "type" : "VEC2"
        },
        {
            "bufferView" : 5,
            "componentType" : 5123,
            "count" : 21978,
            "type" : "SCALAR"
        },
        {
            "bufferView" : 6,
            "componentType" : 5126,
            "count" : 10764,
            "max" : [
                25.49075698852539,
                14.120997428894043,
                -1.8972812085849e-06
            ],
            "min" : [
                -25.490755081176758,
                -14.120999336242676,
                -10.02070140838623
            ],
            "type" : "VEC3"
        },
        {
            "bufferView" : 7,
            "componentType" : 5126,
            "count" : 10764,
            "type" : "VEC2"
        },
        {
            "bufferView" : 8,
            "componentType" : 5123,
            "count" : 21204,
            "type" : "SCALAR"
        }
    ],
    "bufferViews" : [
        {
            "buffer" : 0,
            "byteLength" : 121980,
            "byteOffset" : 0,
            "target" : 34962
        },
        {
            "buffer" : 0,
            "byteLength" : 81320,
            "byteOffset" : 121980,
            "target" : 34962
        },
        {
            "buffer" : 0,
            "byteLength" : 40776,
            "byteOffset" : 203300,
            "target" : 34963
        },
        {
            "buffer" : 0,
            "byteLength" : 126540,
            "byteOffset" : 244076,
            "target" : 34962
        },
        {
            "buffer" : 0,
            "byteLength" : 84360,
            "byteOffset" : 370616,
            "target" : 34962
        },
        {
            "buffer" : 0,
            "byteLength" : 43956,
            "byteOffset" : 454976,
            "target" : 34963
        },
        {
            "buffer" : 0,
            "byteLength" : 129168,
            "byteOffset" : 498932,
            "target" : 34962
        },
        {
            "buffer" : 0,
            "byteLength" : 86112,
            "byteOffset" : 628100,
            "target" : 34962
        },
        {
            "buffer" : 0,
            "byteLength" : 42408,
            "byteOffset" : 714212,
            "target" : 34963
        }
    ],
    "samplers" : [
        {
            "magFilter" : 9729,
            "minFilter" : 9987
        }
    ],
    "buffers" : [
        {
            "byteLength" : 756620,
            "uri" : "DniprovskaOblasnaRada_h+l.bin"
        }
    ]
}
