<?xml version="1.0" encoding="utf-8"?>
<COLLADA xmlns="http://www.collada.org/2005/11/COLLADASchema" version="1.4.1" xmlns:xsi="http://www.w3.org/2001/XMLSchema-instance">
  <asset>
    <contributor>
      <author>Blender User</author>
      <authoring_tool>Blender 3.3.9 commit date:2023-07-17, commit time:12:27, hash:a23b30d4f773</authoring_tool>
    </contributor>
    <created>2025-12-29T01:49:23</created>
    <modified>2025-12-29T01:49:23</modified>
    <unit name="meter" meter="1"/>
    <up_axis>Z_UP</up_axis>
  </asset>
  <library_effects>
    <effect id="_fb74c32-0507-4b68-86b5-d63ea2b307c3-effect">
      <profile_COMMON>
        <newparam sid="_fb74c32-0507-4b68-86b5-d63ea2b307c3-surface">
          <surface type="2D">
            <init_from>_fb74c32-0507-4b68-86b5-d63ea2b307c3</init_from>
          </surface>
        </newparam>
        <newparam sid="_fb74c32-0507-4b68-86b5-d63ea2b307c3-sampler">
          <sampler2D>
            <source>_fb74c32-0507-4b68-86b5-d63ea2b307c3-surface</source>
          </sampler2D>
        </newparam>
        <technique sid="common">
          <lambert>
            <emission>
              <color sid="emission">0 0 0 1</color>
            </emission>
            <diffuse>
              <texture texture="_fb74c32-0507-4b68-86b5-d63ea2b307c3-sampler" texcoord="UVMap"/>
            </diffuse>
            <index_of_refraction>
              <float sid="ior">1.45</float>
            </index_of_refraction>
          </lambert>
        </technique>
      </profile_COMMON>
    </effect>
  </library_effects>
  <library_images>
    <image id="_fb74c32-0507-4b68-86b5-d63ea2b307c3" name="_fb74c32-0507-4b68-86b5-d63ea2b307c3">
      <init_from>9fb74c32-0507-4b68-86b5-d63ea2b307c3_combined.jpg</init_from>
    </image>
  </library_images>
  <library_materials>
    <material id="_fb74c32-0507-4b68-86b5-d63ea2b307c3-material" name="9fb74c32-0507-4b68-86b5-d63ea2b307c3">
      <instance_effect url="#_fb74c32-0507-4b68-86b5-d63ea2b307c3-effect"/>
    </material>
  </library_materials>
  <library_geometries>
    <geometry id="Kat-Chol-Gimn_kcg_h_kcg_l_l_002-mesh" name="Kat-Chol-Gimn_kcg_h+kcg_l_l.002">
      <mesh>
        <source id="Kat-Chol-Gimn_kcg_h_kcg_l_l_002-mesh-positions">
          <float_array id="Kat-Chol-Gimn_kcg_h_kcg_l_l_002-mesh-positions-array" count="432">5.26428e-4 4.577322 14.33447 -11.53877 1.92596e-6 14.33447 5.26428e-4 1.92596e-6 14.33447 -11.53877 4.577322 14.33447 23.07903 4.577322 14.33447 11.53973 1.92596e-6 14.33447 23.07903 1.92596e-6 14.33447 23.07903 1.92596e-6 14.33447 11.53973 4.577322 14.33447 -19.33072 5.365992 8.58938 -19.15468 5.381582 -14.33447 -19.15468 5.381582 -14.33447 -19.33072 5.365992 -14.33447 -19.33072 5.365992 -14.33447 -19.15468 5.381582 8.374819 23.07903 5.365992 8.58938 23.07903 5.365992 8.58938 23.07903 5.381582 8.374819 23.07903 5.381582 8.374819 23.07903 4.577322 2.416129 23.07903 4.577322 2.416129 23.07903 4.577322 14.33347 23.07903 4.577322 14.33347 -23.07802 4.577322 14.33347 -23.07802 4.577322 -14.33447 -23.07802 4.577322 -14.33447 -15.23132 4.577322 -14.33447 -15.23132 4.577322 -14.33447 -15.23132 4.577322 -14.33447 -15.23132 4.577322 -14.33447 -18.97862 5.365992 -14.33447 -18.97862 5.365992 -14.33447 -18.97862 5.365992 8.17438 23.07903 5.365992 8.17438 23.07903 5.365992 8.17438 -15.23132 4.577322 2.416129 -15.23132 4.577322 2.416129 -23.07902 4.577322 -14.33447 -23.07902 1.92596e-6 -4.70161e-4 -23.07902 4.577322 -4.70161e-4 -23.07902 1.92596e-6 -14.33447 -23.07802 4.577322 -4.70161e-4 -23.07802 1.92596e-6 14.33347 -23.07802 1.92596e-6 14.33347 -23.07802 4.577322 14.33347 -23.07802 4.577322 14.33347 -23.07802 1.92596e-6 -4.70161e-4 3.923826 4.577322 2.41513 13.50143 1.92596e-6 2.41513 3.923826 1.92596e-6 2.41513 13.50143 4.577322 2.41513 -15.23132 4.577322 2.41513 -5.653774 1.92596e-6 2.41513 -15.23132 1.92596e-6 2.41513 -5.653774 4.577322 2.41513 13.50143 4.577322 2.416129 23.07903 1.92596e-6 2.416129 13.50143 1.92596e-6 2.416129 23.07903 4.577322 2.416129 -5.653774 4.577322 2.416129 3.923826 1.92596e-6 2.416129 -5.653774 1.92596e-6 2.416129 3.923826 4.577322 2.416129 -11.53877 4.577322 14.33347 -11.53877 1.92596e-6 14.33347 11.53973 4.577322 14.33347 5.26428e-4 1.92596e-6 14.33347 11.53973 1.92596e-6 14.33347 5.26428e-4 4.577322 14.33347 -23.07802 4.577322 -14.33447 -15.23132 1.92596e-6 -14.33447 -15.23132 1.92596e-6 -14.33447 -23.07802 1.92596e-6 -14.33447 -15.23132 1.92596e-6 2.416129 23.07903 1.92596e-6 2.416129 12.03353 0.2181929 -1.06107 12.03353 0.2181929 -1.06107 12.03353 0.2181929 -1.06107 12.03353 0.01819252 2.415429 12.03353 0.01819252 2.415429 12.03353 0.2181929 2.415429 12.03353 0.2181929 2.415429 12.03353 0.2181929 2.415429 12.03353 0.01819252 -1.06107 12.03353 0.01819252 -1.06107 18.30583 0.01819252 -1.06107 18.30583 0.01819252 -1.06107 18.30583 0.2181929 -1.06107 18.30583 0.2181929 -1.06107 18.30583 0.2181929 -1.06107 12.23353 0.2181929 -0.8610706 12.23353 0.2181929 -0.8610706 12.23353 0.2181929 -0.8610706 12.23353 0.2181929 2.415429 12.23353 0.2181929 2.415429 12.23353 0.2181929 2.415429 17.90583 0.4181929 2.415429 17.90583 0.4181929 2.415429 17.90583 0.4181929 2.415429 17.90583 0.4181929 2.415429 18.10583 0.2181929 2.415429 18.10583 0.2181929 2.415429 18.10583 0.2181929 2.415429 18.30583 0.01819252 2.415429 18.30583 0.01819252 2.415429 18.30583 0.2181929 2.415429 18.30583 0.2181929 2.415429 18.30583 0.2181929 2.415429 18.10583 0.2181929 -0.8610706 18.10583 0.2181929 -0.8610706 18.10583 0.2181929 -0.8610706 12.23353 0.4181929 -0.8610706 12.23353 0.4181929 -0.8610706 12.23353 0.4181929 -0.8610706 18.10583 0.4181929 -0.8610706 18.10583 0.4181929 -0.8610706 18.10583 0.4181929 -0.8610706 12.43352 0.4181929 -0.6610708 12.43352 0.4181929 -0.6610708 12.43352 0.4181929 -0.6610708 12.43352 0.4181929 2.415429 12.43352 0.4181929 2.415429 12.43352 0.4181929 2.415429 12.23353 0.4181929 2.415429 12.23353 0.4181929 2.415429 12.23353 0.4181929 2.415429 17.90583 0.6181929 2.415429 17.90583 0.6181929 2.415429 17.90583 0.6181929 2.415429 12.43352 0.6181929 2.415429 12.43352 0.6181929 2.415429 12.43352 0.6181929 2.415429 12.43352 0.6181929 -0.6610708 12.43352 0.6181929 -0.6610708 12.43352 0.6181929 -0.6610708 17.90583 0.6181929 -0.6610708 17.90583 0.6181929 -0.6610708 17.90583 0.6181929 -0.6610708 17.90583 0.4181929 -0.6610708 17.90583 0.4181929 -0.6610708 17.90583 0.4181929 -0.6610708 18.10583 0.4181929 2.415429 18.10583 0.4181929 2.415429 18.10583 0.4181929 2.415429</float_array>
          <technique_common>
            <accessor source="#Kat-Chol-Gimn_kcg_h_kcg_l_l_002-mesh-positions-array" count="144" stride="3">
              <param name="X" type="float"/>
              <param name="Y" type="float"/>
              <param name="Z" type="float"/>
            </accessor>
          </technique_common>
        </source>
        <source id="Kat-Chol-Gimn_kcg_h_kcg_l_l_002-mesh-normals">
          <float_array id="Kat-Chol-Gimn_kcg_h_kcg_l_l_002-mesh-normals-array" count="75">1 0 0 0 0 -1 -0.08820855 0.996102 0 -0.08820843 0.9961021 0 1 -2.79216e-5 0 0 0.997371 0.072465 0 0.9973708 0.07246881 0 1 0 -0.2059517 0.9785622 0 -0.2059516 0.9785622 0 0 0.9907055 0.1360249 0 0.9907055 0.1360251 0 0 1 0 0.9907504 -0.1356967 0 0.9907504 -0.1356967 -1 0 0 0 1 4.35683e-7 0 0.996989 -0.07754385 0 0.9969891 -0.07754266 0 1 1.90057e-7 0.2059518 0.9785621 0 0.2059515 0.9785623 0 -3.96861e-6 0 -1 0.08820688 0.9961022 0 0.088207 0.9961022 0</float_array>
          <technique_common>
            <accessor source="#Kat-Chol-Gimn_kcg_h_kcg_l_l_002-mesh-normals-array" count="25" stride="3">
              <param name="X" type="float"/>
              <param name="Y" type="float"/>
              <param name="Z" type="float"/>
            </accessor>
          </technique_common>
        </source>
        <source id="Kat-Chol-Gimn_kcg_h_kcg_l_l_002-mesh-map-0">
          <float_array id="Kat-Chol-Gimn_kcg_h_kcg_l_l_002-mesh-map-0-array" count="540">0.8438593 0.3680308 0.8481947 0.3680308 0.8481947 0.4387916 0.8438593 0.3680308 0.8481947 0.4387916 0.8438593 0.4387916 0.2734404 0.7299094 0.1039801 0.7299094 0.1039801 0.6306899 0.2734404 0.7299094 0.1039801 0.6306899 0.2734404 0.6306899 0.1742273 0.3634625 0.1742273 0.2642429 0.5359805 0.2642429 0.1742273 0.3634625 0.5359805 0.2642429 0.5359805 0.3634625 0.08256697 0.1261244 0.08636987 0.1307747 0.08636778 0.6230288 0.08256697 0.1261244 0.08636778 0.6230288 0.08256477 0.6230288 0.9867251 0.3996993 0.9867251 0.2642401 0.9910603 0.2642401 0.9867251 0.3996993 0.9910603 0.2642401 0.9910603 0.3996993 0.1742321 0.6254248 0.1742321 0.3680317 0.2734514 0.3680317 0.2734514 0.3680317 0.290547 0.4923892 0.2908847 0.4967179 0.2908847 0.4967179 0.290547 0.5013517 0.2734514 0.6254032 0.2734514 0.6254032 0.1742321 0.6254248 0.2734514 0.3680317 0.2734514 0.3680317 0.2908847 0.4967179 0.2734514 0.6254032 0.9984611 0.1261245 0.9984619 0.1307748 0.08636987 0.1307747 0.9984611 0.1261245 0.08636987 0.1307747 0.08256697 0.1261244 0.8062872 0.486213 0.8062872 0.3680303 0.8106225 0.3680303 0.8062872 0.486213 0.8106225 0.3680303 0.8106225 0.486213 0.9212993 0.5861993 0.9879859 0.5861992 0.9879859 0.704382 0.9212993 0.5861993 0.9879859 0.704382 0.9212993 0.704378 0.08256697 0.1261244 0.08256477 0.6230288 0.00159049 0.6230023 0.08256697 0.1261244 0.00159049 0.6230023 0.001593232 0.001586616 0.08256697 0.1261244 0.001593232 0.001586616 0.9984151 0.001586675 0.08256697 0.1261244 0.9984151 0.001586675 0.9984611 0.1261245 0.7919995 0.4672529 0.5427896 0.4672529 0.5427896 0.3680334 0.7919995 0.4672529 0.5427896 0.3680334 0.7919995 0.3680334 0.1710519 0.2599099 0.09017103 0.135119 0.9984608 0.1351191 0.1710519 0.2599099 0.9984608 0.1351191 0.9984138 0.25991 0.7005937 0.6748302 0.4937515 0.6748301 0.4937515 0.5756107 0.7005937 0.6748302 0.4937515 0.5756107 0.7005937 0.5756107 0.9106068 0.6769508 0.7037647 0.6769508 0.7037647 0.5777312 0.9106068 0.6769508 0.7037647 0.5777312 0.9106068 0.5777312 0.8256517 0.4431127 0.8213164 0.4431127 0.8213164 0.3680328 0.8256517 0.4431127 0.8213164 0.3680328 0.8256517 0.3680328 0.4905722 0.6748327 0.2837301 0.6748327 0.2837301 0.5756131 0.4905722 0.6748327 0.2837301 0.5756131 0.4905722 0.5756131 0.2809406 0.68374 0.2809365 0.7504277 0.2766184 0.7504277 0.4034414 0.6794049 0.4034373 0.7504277 0.3991193 0.7504277 0.4034414 0.6794049 0.3991193 0.7504277 0.3991192 0.68374 0.2809406 0.68374 0.2766184 0.7504277 0.2766184 0.6794049 0.4034414 0.6794049 0.3991192 0.68374 0.2809406 0.68374 0.2809406 0.68374 0.2766184 0.6794049 0.4034414 0.6794049 0.9511115 0.5738045 0.8518922 0.5738046 0.8518922 0.2642427 0.9511115 0.5738045 0.8518922 0.2642427 0.9511115 0.2642427 0.9672544 0.3892106 0.9715897 0.3892106 0.9715897 0.4556523 0.9672544 0.3892106 0.9715897 0.4556523 0.9672544 0.4556523 0.539615 0.467256 0.2904071 0.467256 0.2904071 0.3680365 0.539615 0.467256 0.2904071 0.3680365 0.539615 0.3680365 0.8487181 0.2642462 0.8487181 0.3634656 0.5391573 0.3634656 0.8487181 0.2642462 0.5391573 0.3634656 0.5391573 0.2642462 0.9984619 0.1307748 0.9984608 0.1351191 0.09017103 0.135119 0.9984619 0.1307748 0.09017103 0.135119 0.08636987 0.1307747 0.9181178 0.7088735 0.9891406 0.7088735 0.9891406 0.7131916 0.9137826 0.5777325 0.9891406 0.5777364 0.9891406 0.5820546 0.9137826 0.5777325 0.9891406 0.5820546 0.9181178 0.5820546 0.9181178 0.7088735 0.9891406 0.7131916 0.9137826 0.7131916 0.9137826 0.5777325 0.9181178 0.5820546 0.9181178 0.7088735 0.9181178 0.7088735 0.9137826 0.7131916 0.9137826 0.5777325 0.001584649 0.8332857 0.001584649 0.6264455 0.1008042 0.6264455 0.001584649 0.8332857 0.1008042 0.6264455 0.1008042 0.8332856 0.813798 0.4862152 0.8137979 0.3680325 0.8181332 0.3680325 0.813798 0.4862152 0.8181332 0.3680325 0.8181332 0.4862152 0.1710519 0.2599099 0.1710503 0.6230023 0.09016889 0.6230288 0.1710519 0.2599099 0.09016889 0.6230288 0.09017103 0.135119 0.5432026 0.571039 0.2939968 0.571039 0.2939968 0.4718194 0.5432026 0.571039 0.2939968 0.4718194 0.5432026 0.4718194 0.4034373 0.7504277 0.2809365 0.7504277 0.3991193 0.7504277 0.7955839 0.571039 0.546378 0.571039 0.546378 0.4718194 0.7955839 0.571039 0.546378 0.4718194 0.7955839 0.4718194 0.971723 0.3491091 0.9713853 0.3529108 0.9542898 0.4338386 0.9542898 0.4338386 0.9542897 0.2643784 0.9713853 0.3453063 0.9542898 0.4338386 0.9713853 0.3453063 0.971723 0.3491091 0.8288275 0.3680328 0.8331628 0.3680328 0.8331628 0.4431127 0.8288275 0.3680328 0.8331628 0.4431127 0.8288275 0.4431127 0.9747657 0.4040378 0.9791009 0.4040378 0.9791009 0.4704796 0.9747657 0.4040378 0.9791009 0.4704796 0.9747657 0.4704796 0.8406775 0.4387916 0.8363422 0.4387916 0.8363422 0.3680308 0.8406775 0.4387916 0.8363422 0.3680308 0.8406775 0.3680308 0.9748739 0.3953763 0.9748739 0.3910582 0.9748739 0.2685574 0.9792092 0.2685574 0.9792092 0.2642393 0.9835445 0.2642393 0.9748739 0.3953763 0.9748739 0.2685574 0.9792092 0.2685574 0.9835445 0.3996985 0.9792092 0.3996985 0.9792092 0.3953763 0.9792092 0.3953763 0.9748739 0.3953763 0.9792092 0.2685574 0.9792092 0.2685574 0.9835445 0.2642393 0.9835445 0.3996985 0.9792092 0.2685574 0.9835445 0.3996985 0.9792092 0.3953763 0.7987678 0.4948505 0.7987678 0.3680275 0.803103 0.3680275 0.7987678 0.4948505 0.803103 0.3680275 0.803103 0.4948505 0.08636778 0.6230288 0.08636987 0.1307747 0.09017103 0.135119 0.08636778 0.6230288 0.09017103 0.135119 0.09016889 0.6230288</float_array>
          <technique_common>
            <accessor source="#Kat-Chol-Gimn_kcg_h_kcg_l_l_002-mesh-map-0-array" count="270" stride="2">
              <param name="S" type="float"/>
              <param name="T" type="float"/>
            </accessor>
          </technique_common>
        </source>
        <vertices id="Kat-Chol-Gimn_kcg_h_kcg_l_l_002-mesh-vertices">
          <input semantic="POSITION" source="#Kat-Chol-Gimn_kcg_h_kcg_l_l_002-mesh-positions"/>
        </vertices>
        <triangles material="_fb74c32-0507-4b68-86b5-d63ea2b307c3-material" count="90">
          <input semantic="VERTEX" source="#Kat-Chol-Gimn_kcg_h_kcg_l_l_002-mesh-vertices" offset="0"/>
          <input semantic="NORMAL" source="#Kat-Chol-Gimn_kcg_h_kcg_l_l_002-mesh-normals" offset="1"/>
          <input semantic="TEXCOORD" source="#Kat-Chol-Gimn_kcg_h_kcg_l_l_002-mesh-map-0" offset="2" set="0"/>
          <p>142 0 0 100 0 1 109 0 2 142 0 3 109 0 4 116 0 5 69 1 6 26 1 7 70 1 8 69 1 9 70 1 10 72 1 11 36 0 12 73 0 13 71 0 14 36 0 15 71 0 16 28 0 17 9 2 18 14 2 19 10 2 20 9 3 21 10 3 22 12 3 23 77 1 24 89 1 25 86 1 26 77 1 27 86 1 28 84 1 29 6 0 30 74 0 31 19 0 32 19 4 33 33 4 34 17 4 35 17 0 36 15 0 37 21 0 38 21 0 39 6 0 40 19 0 41 19 0 42 17 0 43 21 0 44 16 5 45 18 5 46 14 5 47 16 6 48 14 6 49 9 6 50 132 1 51 135 1 52 139 1 53 132 1 54 139 1 55 118 1 56 127 7 57 137 7 58 134 7 59 127 7 60 134 7 61 130 7 62 9 8 63 12 8 64 24 8 65 9 9 66 24 9 67 23 9 68 9 10 69 23 10 70 22 10 71 9 11 72 22 11 73 16 11 74 4 12 75 8 12 76 5 12 77 4 12 78 5 12 79 7 12 80 35 13 81 32 13 82 34 13 83 35 14 84 34 14 85 20 14 86 59 1 87 62 1 88 60 1 89 59 1 90 60 1 91 61 1 92 47 1 93 50 1 94 48 1 95 47 1 96 48 1 97 49 1 98 75 15 99 83 15 100 78 15 101 75 15 102 78 15 103 80 15 104 55 1 105 58 1 106 56 1 107 55 1 108 56 1 109 57 1 110 138 7 111 96 7 112 141 7 113 111 7 114 123 7 115 120 7 116 111 7 117 120 7 118 117 7 119 138 7 120 141 7 121 114 7 122 111 16 123 117 16 124 138 16 125 138 7 126 114 7 127 111 7 128 37 15 129 40 15 130 38 15 131 37 15 132 38 15 133 39 15 134 122 15 135 131 15 136 133 15 137 122 15 138 133 15 139 119 15 140 0 12 141 3 12 142 1 12 143 0 12 144 1 12 145 2 12 146 41 15 147 46 15 148 42 15 149 41 15 150 42 15 151 44 15 152 18 17 153 34 17 154 32 17 155 18 18 156 32 18 157 14 18 158 110 7 159 102 7 160 107 7 161 76 7 162 82 7 163 95 7 164 76 7 165 95 7 166 92 7 167 110 7 168 107 7 169 88 7 170 76 7 171 92 7 172 110 7 173 110 19 174 88 19 175 76 19 176 51 1 177 54 1 178 52 1 179 51 1 180 52 1 181 53 1 182 126 12 183 129 12 184 121 12 185 126 12 186 121 12 187 97 12 188 35 20 189 27 20 190 30 20 191 35 21 192 30 21 193 32 21 194 65 12 195 68 12 196 66 12 197 65 12 198 66 12 199 67 12 200 123 1 201 96 1 202 120 1 203 63 12 204 45 12 205 43 12 206 63 12 207 43 12 208 64 12 209 11 1 210 31 1 211 29 1 212 29 1 213 25 1 214 13 1 215 29 22 216 13 22 217 11 22 218 105 0 219 103 0 220 85 0 221 105 0 222 85 0 223 87 0 224 128 0 225 99 0 226 140 0 227 128 0 228 140 0 229 136 0 230 113 15 231 91 15 232 93 15 233 113 15 234 93 15 235 124 15 236 143 12 237 98 12 238 125 12 239 94 12 240 81 12 241 79 12 242 143 12 243 125 12 244 94 12 245 104 12 246 106 12 247 101 12 248 101 12 249 143 12 250 94 12 251 94 12 252 79 12 253 104 12 254 94 12 255 104 12 256 101 12 257 112 1 258 115 1 259 108 1 260 112 1 261 108 1 262 90 1 263 10 23 264 14 23 265 32 23 266 10 24 267 32 24 268 30 24 269</p>
        </triangles>
      </mesh>
    </geometry>
  </library_geometries>
  <library_visual_scenes>
    <visual_scene id="Scene" name="Scene">
      <node id="_fb74c32-0507-4b68-86b5-d63ea2b307c3" name="9fb74c32-0507-4b68-86b5-d63ea2b307c3" type="NODE">
        <matrix sid="transform">1 1.4243e-14 8.74228e-8 0 8.74228e-8 -1.62921e-7 -0.9999999 0 0 0.9999999 -1.62921e-7 0 0 0 0 1</matrix>
        <instance_geometry url="#Kat-Chol-Gimn_kcg_h_kcg_l_l_002-mesh" name="9fb74c32-0507-4b68-86b5-d63ea2b307c3">
          <bind_material>
            <technique_common>
              <instance_material symbol="_fb74c32-0507-4b68-86b5-d63ea2b307c3-material" target="#_fb74c32-0507-4b68-86b5-d63ea2b307c3-material">
                <bind_vertex_input semantic="UVMap" input_semantic="TEXCOORD" input_set="0"/>
              </instance_material>
            </technique_common>
          </bind_material>
        </instance_geometry>
      </node>
    </visual_scene>
  </library_visual_scenes>
  <scene>
    <instance_visual_scene url="#Scene"/>
  </scene>
</COLLADA>