{
    "asset" : {
        "copyright" : "CONCEPT3D",
        "generator" : "Khronos glTF Blender I/O v3.3.36",
        "version" : "2.0"
    },
    "scene" : 0,
    "scenes" : [
        {
            "name" : "Scene",
            "nodes" : [
                0
            ]
        }
    ],
    "nodes" : [
        {
            "mesh" : 0,
            "name" : "4bc27e5c-fdb5-409b-910e-47b3cfb9e2be",
            "rotation" : [
                0,
                -0.7071067094802856,
                0.7071068286895752,
                3.0908616110991716e-08
            ]
        }
    ],
    "materials" : [
        {
            "doubleSided" : true,
            "name" : "4bc27e5c-fdb5-409b-910e-47b3cfb9e2be",
            "pbrMetallicRoughness" : {
                "baseColorTexture" : {
                    "index" : 0
                },
                "metallicFactor" : 0,
                "roughnessFactor" : 0.5
            }
        }
    ],
    "meshes" : [
        {
            "name" : "Tserkov-Preobrazhenka_tp_h+tp_l_l.002",
            "primitives" : [
                {
                    "attributes" : {
                        "POSITION" : 0,
                        "TEXCOORD_0" : 1
                    },
                    "indices" : 2,
                    "material" : 0
                }
            ]
        }
    ],
    "textures" : [
        {
            "sampler" : 0,
            "source" : 0
        }
    ],
    "images" : [
        {
            "mimeType" : "image/jpeg",
            "name" : "4bc27e5c-fdb5-409b-910e-47b3cfb9e2be",
            "uri" : "4bc27e5c-fdb5-409b-910e-47b3cfb9e2be_combined.jpg"
        }
    ],
    "accessors" : [
        {
            "bufferView" : 0,
            "componentType" : 5126,
            "count" : 11948,
            "max" : [
                22.096553802490234,
                12.528440475463867,
                -1.5497207641601562e-06
            ],
            "min" : [
                -22.096555709838867,
                -12.528450012207031,
                -35.52896499633789
            ],
            "type" : "VEC3"
        },
        {
            "bufferView" : 1,
            "componentType" : 5126,
            "count" : 11948,
            "type" : "VEC2"
        },
        {
            "bufferView" : 2,
            "componentType" : 5123,
            "count" : 44937,
            "type" : "SCALAR"
        }
    ],
    "bufferViews" : [
        {
            "buffer" : 0,
            "byteLength" : 143376,
            "byteOffset" : 0,
            "target" : 34962
        },
        {
            "buffer" : 0,
            "byteLength" : 95584,
            "byteOffset" : 143376,
            "target" : 34962
        },
        {
            "buffer" : 0,
            "byteLength" : 89874,
            "byteOffset" : 238960,
            "target" : 34963
        }
    ],
    "samplers" : [
        {
            "magFilter" : 9729,
            "minFilter" : 9987
        }
    ],
    "buffers" : [
        {
            "byteLength" : 328836,
            "uri" : "Tserkov-Preobrazhenka_tp_h+tp_l.bin"
        }
    ]
}
