{
    "asset" : {
        "copyright" : "CONCEPT3D",
        "generator" : "Khronos glTF Blender I/O v3.3.36",
        "version" : "2.0"
    },
    "scene" : 0,
    "scenes" : [
        {
            "name" : "Scene",
            "nodes" : [
                0
            ]
        }
    ],
    "nodes" : [
        {
            "mesh" : 0,
            "name" : "4eae8c35-78ae-4cdc-a969-1b04142f8481",
            "rotation" : [
                0,
                -0.7071067094802856,
                0.7071068286895752,
                3.0908616110991716e-08
            ]
        }
    ],
    "materials" : [
        {
            "doubleSided" : true,
            "name" : "4eae8c35-78ae-4cdc-a969-1b04142f8481",
            "pbrMetallicRoughness" : {
                "baseColorTexture" : {
                    "index" : 0
                },
                "metallicFactor" : 0,
                "roughnessFactor" : 0.5
            }
        },
        {
            "doubleSided" : true,
            "name" : "5abe5cc9-8450-4738-ad57-26798d46d4d2",
            "pbrMetallicRoughness" : {
                "baseColorTexture" : {
                    "index" : 1
                },
                "metallicFactor" : 0,
                "roughnessFactor" : 0.5
            }
        }
    ],
    "meshes" : [
        {
            "name" : "HistoricalMuseum_prep_his_h+his_l_l.002",
            "primitives" : [
                {
                    "attributes" : {
                        "POSITION" : 0,
                        "TEXCOORD_0" : 1
                    },
                    "indices" : 2,
                    "material" : 0
                },
                {
                    "attributes" : {
                        "POSITION" : 3,
                        "TEXCOORD_0" : 4
                    },
                    "indices" : 5,
                    "material" : 1
                }
            ]
        }
    ],
    "textures" : [
        {
            "sampler" : 0,
            "source" : 0
        },
        {
            "sampler" : 0,
            "source" : 1
        }
    ],
    "images" : [
        {
            "mimeType" : "image/jpeg",
            "name" : "4eae8c35-78ae-4cdc-a969-1b04142f8481",
            "uri" : "4eae8c35-78ae-4cdc-a969-1b04142f8481_combined.jpg"
        },
        {
            "mimeType" : "image/jpeg",
            "name" : "5abe5cc9-8450-4738-ad57-26798d46d4d2",
            "uri" : "5abe5cc9-8450-4738-ad57-26798d46d4d2_combined.jpg"
        }
    ],
    "accessors" : [
        {
            "bufferView" : 0,
            "componentType" : 5126,
            "count" : 13217,
            "max" : [
                9.622900009155273,
                26.02670669555664,
                -4.291534423828125e-06
            ],
            "min" : [
                -9.622900009155273,
                -26.02671241760254,
                -5.400514602661133
            ],
            "type" : "VEC3"
        },
        {
            "bufferView" : 1,
            "componentType" : 5126,
            "count" : 13217,
            "type" : "VEC2"
        },
        {
            "bufferView" : 2,
            "componentType" : 5123,
            "count" : 30300,
            "type" : "SCALAR"
        },
        {
            "bufferView" : 3,
            "componentType" : 5126,
            "count" : 13474,
            "max" : [
                9.622900009155273,
                26.02670669555664,
                -4.0531158447265625e-06
            ],
            "min" : [
                -9.621899604797363,
                -26.026708602905273,
                -5.400513648986816
            ],
            "type" : "VEC3"
        },
        {
            "bufferView" : 4,
            "componentType" : 5126,
            "count" : 13474,
            "type" : "VEC2"
        },
        {
            "bufferView" : 5,
            "componentType" : 5123,
            "count" : 31512,
            "type" : "SCALAR"
        }
    ],
    "bufferViews" : [
        {
            "buffer" : 0,
            "byteLength" : 158604,
            "byteOffset" : 0,
            "target" : 34962
        },
        {
            "buffer" : 0,
            "byteLength" : 105736,
            "byteOffset" : 158604,
            "target" : 34962
        },
        {
            "buffer" : 0,
            "byteLength" : 60600,
            "byteOffset" : 264340,
            "target" : 34963
        },
        {
            "buffer" : 0,
            "byteLength" : 161688,
            "byteOffset" : 324940,
            "target" : 34962
        },
        {
            "buffer" : 0,
            "byteLength" : 107792,
            "byteOffset" : 486628,
            "target" : 34962
        },
        {
            "buffer" : 0,
            "byteLength" : 63024,
            "byteOffset" : 594420,
            "target" : 34963
        }
    ],
    "samplers" : [
        {
            "magFilter" : 9729,
            "minFilter" : 9987
        }
    ],
    "buffers" : [
        {
            "byteLength" : 657444,
            "uri" : "HistoricalMuseum_prep_his_h+his_l.bin"
        }
    ]
}
