{
    "asset" : {
        "copyright" : "CONCEPT3D",
        "generator" : "Khronos glTF Blender I/O v3.3.36",
        "version" : "2.0"
    },
    "scene" : 0,
    "scenes" : [
        {
            "name" : "Scene",
            "nodes" : [
                0
            ]
        }
    ],
    "nodes" : [
        {
            "mesh" : 0,
            "name" : "d3db48a3-b06f-40e7-80f5-5da0f6606894",
            "rotation" : [
                0,
                -0.7071067094802856,
                0.7071068286895752,
                3.0908616110991716e-08
            ]
        }
    ],
    "materials" : [
        {
            "doubleSided" : true,
            "name" : "d3db48a3-b06f-40e7-80f5-5da0f6606894",
            "pbrMetallicRoughness" : {
                "baseColorTexture" : {
                    "index" : 0
                },
                "metallicFactor" : 0,
                "roughnessFactor" : 0.5
            }
        },
        {
            "doubleSided" : true,
            "name" : "843d1912-5976-4a6f-b35c-efbdc01253fe",
            "pbrMetallicRoughness" : {
                "baseColorTexture" : {
                    "index" : 1
                },
                "metallicFactor" : 0,
                "roughnessFactor" : 0.5
            }
        }
    ],
    "meshes" : [
        {
            "name" : "ZemskaLikarnya_high+low_l.002",
            "primitives" : [
                {
                    "attributes" : {
                        "POSITION" : 0,
                        "TEXCOORD_0" : 1
                    },
                    "indices" : 2,
                    "material" : 0
                },
                {
                    "attributes" : {
                        "POSITION" : 3,
                        "TEXCOORD_0" : 4
                    },
                    "indices" : 5,
                    "material" : 1
                }
            ]
        }
    ],
    "textures" : [
        {
            "sampler" : 0,
            "source" : 0
        },
        {
            "sampler" : 0,
            "source" : 1
        }
    ],
    "images" : [
        {
            "mimeType" : "image/jpeg",
            "name" : "d3db48a3-b06f-40e7-80f5-5da0f6606894",
            "uri" : "d3db48a3-b06f-40e7-80f5-5da0f6606894_combined.jpg"
        },
        {
            "mimeType" : "image/jpeg",
            "name" : "843d1912-5976-4a6f-b35c-efbdc01253fe",
            "uri" : "843d1912-5976-4a6f-b35c-efbdc01253fe_combined.jpg"
        }
    ],
    "accessors" : [
        {
            "bufferView" : 0,
            "componentType" : 5126,
            "count" : 590,
            "max" : [
                27.432165145874023,
                8.151056289672852,
                -1.0970805988108623e-06
            ],
            "min" : [
                -27.432167053222656,
                -8.151062965393066,
                -15.78070068359375
            ],
            "type" : "VEC3"
        },
        {
            "bufferView" : 1,
            "componentType" : 5126,
            "count" : 590,
            "type" : "VEC2"
        },
        {
            "bufferView" : 2,
            "componentType" : 5123,
            "count" : 1086,
            "type" : "SCALAR"
        },
        {
            "bufferView" : 3,
            "componentType" : 5126,
            "count" : 884,
            "max" : [
                27.432165145874023,
                8.151056289672852,
                -1.0951669082714943e-06
            ],
            "min" : [
                -27.432167053222656,
                -8.151061058044434,
                -15.780699729919434
            ],
            "type" : "VEC3"
        },
        {
            "bufferView" : 4,
            "componentType" : 5126,
            "count" : 884,
            "type" : "VEC2"
        },
        {
            "bufferView" : 5,
            "componentType" : 5123,
            "count" : 1422,
            "type" : "SCALAR"
        }
    ],
    "bufferViews" : [
        {
            "buffer" : 0,
            "byteLength" : 7080,
            "byteOffset" : 0,
            "target" : 34962
        },
        {
            "buffer" : 0,
            "byteLength" : 4720,
            "byteOffset" : 7080,
            "target" : 34962
        },
        {
            "buffer" : 0,
            "byteLength" : 2172,
            "byteOffset" : 11800,
            "target" : 34963
        },
        {
            "buffer" : 0,
            "byteLength" : 10608,
            "byteOffset" : 13972,
            "target" : 34962
        },
        {
            "buffer" : 0,
            "byteLength" : 7072,
            "byteOffset" : 24580,
            "target" : 34962
        },
        {
            "buffer" : 0,
            "byteLength" : 2844,
            "byteOffset" : 31652,
            "target" : 34963
        }
    ],
    "samplers" : [
        {
            "magFilter" : 9729,
            "minFilter" : 9987
        }
    ],
    "buffers" : [
        {
            "byteLength" : 34496,
            "uri" : "ZemskaLikarnya_high+low.bin"
        }
    ]
}
