{
    "asset" : {
        "copyright" : "CONCEPT3D",
        "generator" : "Khronos glTF Blender I/O v3.3.36",
        "version" : "2.0"
    },
    "scene" : 0,
    "scenes" : [
        {
            "name" : "Scene",
            "nodes" : [
                0
            ]
        }
    ],
    "nodes" : [
        {
            "mesh" : 0,
            "name" : "f166c327-7a4b-4309-b46e-1586976a1326",
            "rotation" : [
                0,
                -0.7071067094802856,
                0.7071068286895752,
                3.0908616110991716e-08
            ]
        }
    ],
    "materials" : [
        {
            "doubleSided" : true,
            "name" : "f166c327-7a4b-4309-b46e-1586976a1326",
            "pbrMetallicRoughness" : {
                "baseColorTexture" : {
                    "index" : 0
                },
                "metallicFactor" : 0,
                "roughnessFactor" : 0.5
            }
        },
        {
            "doubleSided" : true,
            "name" : "0081b245-ace2-4331-b33c-25c1643b1f52",
            "pbrMetallicRoughness" : {
                "baseColorTexture" : {
                    "index" : 1
                },
                "metallicFactor" : 0,
                "roughnessFactor" : 0.5
            }
        },
        {
            "doubleSided" : true,
            "name" : "54e3ad1d-7bf9-425c-80dd-bdb18fb3692a",
            "pbrMetallicRoughness" : {
                "baseColorTexture" : {
                    "index" : 2
                },
                "metallicFactor" : 0,
                "roughnessFactor" : 0.5
            }
        }
    ],
    "meshes" : [
        {
            "name" : "Oblasna-Philharmonic_op_h+op_l_l.002",
            "primitives" : [
                {
                    "attributes" : {
                        "POSITION" : 0,
                        "TEXCOORD_0" : 1
                    },
                    "indices" : 2,
                    "material" : 0
                },
                {
                    "attributes" : {
                        "POSITION" : 3,
                        "TEXCOORD_0" : 4
                    },
                    "indices" : 5,
                    "material" : 1
                },
                {
                    "attributes" : {
                        "POSITION" : 6,
                        "TEXCOORD_0" : 7
                    },
                    "indices" : 8,
                    "material" : 2
                }
            ]
        }
    ],
    "textures" : [
        {
            "sampler" : 0,
            "source" : 0
        },
        {
            "sampler" : 0,
            "source" : 1
        },
        {
            "sampler" : 0,
            "source" : 2
        }
    ],
    "images" : [
        {
            "mimeType" : "image/jpeg",
            "name" : "f166c327-7a4b-4309-b46e-1586976a1326",
            "uri" : "f166c327-7a4b-4309-b46e-1586976a1326_combined.jpg"
        },
        {
            "mimeType" : "image/jpeg",
            "name" : "0081b245-ace2-4331-b33c-25c1643b1f52",
            "uri" : "0081b245-ace2-4331-b33c-25c1643b1f52_combined.jpg"
        },
        {
            "mimeType" : "image/jpeg",
            "name" : "54e3ad1d-7bf9-425c-80dd-bdb18fb3692a",
            "uri" : "54e3ad1d-7bf9-425c-80dd-bdb18fb3692a_combined.jpg"
        }
    ],
    "accessors" : [
        {
            "bufferView" : 0,
            "componentType" : 5126,
            "count" : 2732,
            "max" : [
                24.569482803344727,
                19.844196319580078,
                -2.6662435175239807e-06
            ],
            "min" : [
                -24.569480895996094,
                -19.844202041625977,
                -28.480501174926758
            ],
            "type" : "VEC3"
        },
        {
            "bufferView" : 1,
            "componentType" : 5126,
            "count" : 2732,
            "type" : "VEC2"
        },
        {
            "bufferView" : 2,
            "componentType" : 5123,
            "count" : 4998,
            "type" : "SCALAR"
        },
        {
            "bufferView" : 3,
            "componentType" : 5126,
            "count" : 2284,
            "max" : [
                24.569482803344727,
                19.844196319580078,
                -2.6662435175239807e-06
            ],
            "min" : [
                -24.569480895996094,
                -19.844200134277344,
                -28.480499267578125
            ],
            "type" : "VEC3"
        },
        {
            "bufferView" : 4,
            "componentType" : 5126,
            "count" : 2284,
            "type" : "VEC2"
        },
        {
            "bufferView" : 5,
            "componentType" : 5123,
            "count" : 4137,
            "type" : "SCALAR"
        },
        {
            "bufferView" : 6,
            "componentType" : 5126,
            "count" : 2637,
            "max" : [
                24.569482803344727,
                19.844196319580078,
                -2.6662435175239807e-06
            ],
            "min" : [
                -24.569480895996094,
                -19.844200134277344,
                -28.480499267578125
            ],
            "type" : "VEC3"
        },
        {
            "bufferView" : 7,
            "componentType" : 5126,
            "count" : 2637,
            "type" : "VEC2"
        },
        {
            "bufferView" : 8,
            "componentType" : 5123,
            "count" : 4989,
            "type" : "SCALAR"
        }
    ],
    "bufferViews" : [
        {
            "buffer" : 0,
            "byteLength" : 32784,
            "byteOffset" : 0,
            "target" : 34962
        },
        {
            "buffer" : 0,
            "byteLength" : 21856,
            "byteOffset" : 32784,
            "target" : 34962
        },
        {
            "buffer" : 0,
            "byteLength" : 9996,
            "byteOffset" : 54640,
            "target" : 34963
        },
        {
            "buffer" : 0,
            "byteLength" : 27408,
            "byteOffset" : 64636,
            "target" : 34962
        },
        {
            "buffer" : 0,
            "byteLength" : 18272,
            "byteOffset" : 92044,
            "target" : 34962
        },
        {
            "buffer" : 0,
            "byteLength" : 8274,
            "byteOffset" : 110316,
            "target" : 34963
        },
        {
            "buffer" : 0,
            "byteLength" : 31644,
            "byteOffset" : 118592,
            "target" : 34962
        },
        {
            "buffer" : 0,
            "byteLength" : 21096,
            "byteOffset" : 150236,
            "target" : 34962
        },
        {
            "buffer" : 0,
            "byteLength" : 9978,
            "byteOffset" : 171332,
            "target" : 34963
        }
    ],
    "samplers" : [
        {
            "magFilter" : 9729,
            "minFilter" : 9987
        }
    ],
    "buffers" : [
        {
            "byteLength" : 181312,
            "uri" : "Oblasna-Philharmonic_op_h+op_l.bin"
        }
    ]
}
