{
	"asset":{
		"generator":"Khronos glTF Blender I/O v5.0.21",
		"version":"2.0"
	},
	"scene":0,
	"scenes":[
		{
			"name":"Scene",
			"nodes":[
				0,
				1
			]
		}
	],
	"nodes":[
		{
			"mesh":0,
			"name":"Horizontal",
			"scale":[
				1,
				0.23318791389465332,
				1
			],
			"translation":[
				5598.8974609375,
				18.69091796875,
				-327.0333557128906
			]
		},
		{
			"mesh":1,
			"name":"Vertical",
			"scale":[
				1,
				0.23318791389465332,
				1
			],
			"translation":[
				5598.8974609375,
				18.69091796875,
				-327.0333557128906
			]
		}
	],
	"materials":[
		{
			"doubleSided":true,
			"name":"Material",
			"pbrMetallicRoughness":{
				"baseColorFactor":[
					0.04091520607471466,
					0.04091520607471466,
					0.04091520607471466,
					1
				],
				"metallicFactor":0,
				"roughnessFactor":0.5
			}
		},
		{
			"doubleSided":true,
			"name":"buildings",
			"pbrMetallicRoughness":{
				"metallicFactor":0
			}
		}
	],
	"meshes":[
		{
			"name":"None_buildings",
			"primitives":[
				{
					"attributes":{
						"POSITION":0,
						"NORMAL":1
					},
					"indices":2,
					"material":0
				}
			]
		},
		{
			"name":"None_buildings.001",
			"primitives":[
				{
					"attributes":{
						"POSITION":3,
						"NORMAL":4,
						"TEXCOORD_0":5
					},
					"indices":6,
					"material":1
				}
			]
		}
	],
	"accessors":[
		{
			"bufferView":0,
			"componentType":5126,
			"count":741516,
			"max":[
				2167.49267578125,
				-79.29620361328125,
				5956.548828125
			],
			"min":[
				-13182.5693359375,
				-164.02890014648438,
				-5344.3388671875
			],
			"type":"VEC3"
		},
		{
			"bufferView":1,
			"componentType":5126,
			"count":741516,
			"type":"VEC3"
		},
		{
			"bufferView":2,
			"componentType":5125,
			"count":1380978,
			"type":"SCALAR"
		},
		{
			"bufferView":3,
			"componentType":5126,
			"count":1484034,
			"max":[
				2167.49267578125,
				-79.29620361328125,
				5956.548828125
			],
			"min":[
				-13182.5693359375,
				-164.02890014648438,
				-5344.3388671875
			],
			"type":"VEC3"
		},
		{
			"bufferView":4,
			"componentType":5126,
			"count":1484034,
			"type":"VEC3"
		},
		{
			"bufferView":5,
			"componentType":5126,
			"count":1484034,
			"type":"VEC2"
		},
		{
			"bufferView":6,
			"componentType":5125,
			"count":2226048,
			"type":"SCALAR"
		}
	],
	"bufferViews":[
		{
			"buffer":0,
			"byteLength":8898192,
			"byteOffset":0,
			"target":34962
		},
		{
			"buffer":0,
			"byteLength":8898192,
			"byteOffset":8898192,
			"target":34962
		},
		{
			"buffer":0,
			"byteLength":5523912,
			"byteOffset":17796384,
			"target":34963
		},
		{
			"buffer":0,
			"byteLength":17808408,
			"byteOffset":23320296,
			"target":34962
		},
		{
			"buffer":0,
			"byteLength":17808408,
			"byteOffset":41128704,
			"target":34962
		},
		{
			"buffer":0,
			"byteLength":11872272,
			"byteOffset":58937112,
			"target":34962
		},
		{
			"buffer":0,
			"byteLength":8904192,
			"byteOffset":70809384,
			"target":34963
		}
	],
	"buffers":[
		{
			"byteLength":79713576,
			"uri":"Town-BG-Mirrored.bin"
		}
	]
}
